<svg t="1650133225147" class="icon" viewBox="0 0 1024 1024" version="1.1" xmlns="http://www.w3.org/2000/svg" p-id="5647" width="200" height="200"><path d="M775.26047 1024c-4.863344 0-9.598705-1.791758-13.310204-5.503257L645.102036 901.776496l-116.720247 116.720247c-7.422998 7.295015-19.325392 7.295015-26.620407 0l-116.720247-116.720247-116.720247 116.720247c-7.422998 7.295015-19.325392 7.295015-26.620407 0L111.67003 888.466292c-3.583516-3.583516-5.503257-8.318877-5.503257-13.310204L106.166772 140.279269c0-10.366601 8.44686-18.813461 18.813461-18.813461s18.813461 8.44686 18.813461 18.813461l0 727.069873 111.21699 111.21699 116.720247-116.720247c7.422998-7.295015 19.325392-7.295015 26.620407 0l116.720247 116.720247 116.720247-116.720247c7.422998-7.295015 19.325392-7.295015 26.620407 0l116.720247 116.720247 111.344973-111.344973L886.47746 230.379109c0-10.366601 8.44686-18.813461 18.813461-18.813461 10.366601 0 18.813461 8.44686 18.813461 18.813461l0 644.776979c0 6.015188-2.81562 11.26248-7.167033 14.718014L788.570673 1018.496743C784.859174 1022.208242 779.995831 1024 775.26047 1024z" p-id="5648"></path><path d="M748.000149 426.192682 282.398988 426.192682c-13.054238 0-23.548822-10.494584-23.548822-23.548822s10.494584-23.548822 23.548822-23.548822l465.473179 0c13.054238 0 23.548822 10.494584 23.548822 23.548822S760.926404 426.192682 748.000149 426.192682z" p-id="5649"></path><path d="M748.000149 573.884749 282.398988 573.884749c-13.054238 0-23.548822-10.494584-23.548822-23.548822 0-13.054238 10.494584-23.548822 23.548822-23.548822l465.473179 0c13.054238 0 23.548822 10.494584 23.548822 23.548822C771.548971 563.390165 760.926404 573.884749 748.000149 573.884749z" p-id="5650"></path><path d="M748.000149 721.576816 282.398988 721.576816c-13.054238 0-23.548822-10.494584-23.548822-23.548822 0-13.054238 10.494584-23.548822 23.548822-23.548822l465.473179 0c13.054238 0 23.548822 10.494584 23.548822 23.548822C771.548971 711.082232 760.926404 721.576816 748.000149 721.576816z" p-id="5651"></path><path d="M245.028031 249.19257c-9.342739 0-17.277668-6.783085-18.685478-16.125824-1.40781-9.214756 4.22343-18.045565 13.182221-20.861185 2.559655-0.767896 65.911104-21.245133 65.911104-85.236496 0-57.848193-56.056434-83.700704-69.622604-89.203961-10.238618 0.383948-42.2343 3.583516-65.271191 25.980494-17.789599 17.277668-26.74839 43.002196-26.74839 76.405688 0 10.366601-8.44686 18.813461-18.813461 18.813461s-18.813461-8.44686-18.813461-18.813461c0-44.026058 12.926255-78.965343 38.394818-103.666009 37.242974-36.091129 88.308082-36.60306 94.451253-36.475077 0 0 0 0 0 0 0.255965 0 0.511931 0 0.767896 0l670.501507 0C949.700927 0.650114 1023.930909 27.654469 1023.930909 125.945204c0 94.195287-75.509809 121.839556-115.44042 123.247366L245.028031 249.19257zM309.019395 211.565648l598.703198 0c7.295015-0.383948 78.453412-6.015188 78.453412-85.620444 0-83.828686-68.598742-87.796151-76.405688-88.052116l-605.742248 0C324.889253 57.858393 343.0628 86.782489 343.0628 127.097048 343.0628 163.828091 328.088821 191.600343 309.019395 211.565648z" p-id="5652"></path></svg>