<svg t="1650348196929" class="icon" viewBox="0 0 1024 1024" version="1.1" xmlns="http://www.w3.org/2000/svg" p-id="3696" width="200" height="200"><path d="M65.533867 485.275733l758.308266 203.2576c27.3152 7.317333 55.392-8.900267 62.698667-36.2176l8.842667-32.9664c21.8496-81.924267-26.7328-166.0736-108.608-188.106666l-189.166934-50.692267-107.658666-303.784533a17.073067 17.073067 0 0 0-11.675734-10.7904L329.9328 26.176a17.0624 17.0624 0 0 0-21.124267 19.899733l55.6672 271.940267-125.3184-33.582933 3.328-197.749334a17.077333 17.077333 0 0 0-12.650666-16.768L114.432 39.050667a17.066667 17.066667 0 0 0-20.9088 12.0832L5.205333 380.840533c-12.149333 45.493333 14.850133 92.226133 60.3264 104.4352z m335.790933-157.393066L347.767467 66.2336 460.8 96.541867l96.817067 273.290666zM38.158933 389.700267l83.9168-313.258667 86.141867 23.125333L204.8 297.250133a17.064533 17.064533 0 0 0 12.650667 16.7744l560.4992 150.184534c63.684267 17.141333 101.467733 82.5984 84.4672 146.3168l-8.8256 32.974933a17.073067 17.073067 0 0 1-20.906667 12.0832L74.3552 452.366933c-27.2896-7.317333-43.490133-35.3664-36.1984-62.666666z m0 0" p-id="3697"></path><path d="M743.790933 525.725867l8.842667-32.968534 65.949867 17.685334-8.842667 32.9664z m0 0M677.8496 508.066133l8.832-32.974933 32.977067 8.832-8.832 32.977067z m0 0M611.9168 490.391467l8.832-32.974934 32.968533 8.842667-8.832 32.9664z m0 0M545.966933 472.7168l8.840534-32.9664 32.968533 8.832-8.834133 32.968533z m0 0M480.049067 455.04l8.834133-32.964267 32.974933 8.832-8.840533 32.9664z m0 0M414.0672 437.399467l8.832-32.9664 32.974933 8.832-8.832 32.968533z m0 0M348.149333 419.7248l8.832-32.9664 32.968534 8.832-8.832 32.968533z m0 0M282.325333 402.176l8.840534-32.977067 32.992 8.842667-8.840534 32.974933z m0 0M0 963.1424h1024v34.133333H0z m0 0M78.549333 603.3344l13.585067-31.3344 512 221.8752-13.576533 31.332267z m0 0M9.717333 688.416l14.683734-30.833067 358.4 170.658134-14.683734 30.833066z m0 0" p-id="3698"></path></svg>
