<svg t="1650209205372" class="icon" viewBox="0 0 1026 1024" version="1.1" xmlns="http://www.w3.org/2000/svg" p-id="10955" width="200" height="200"><path d="M196.233887 600.241436a84.955658 84.955658 0 0 0 51.916159 39.850489 85.881319 85.881319 0 0 0 22.237261 2.956559 85.062547 85.062547 0 0 0 42.614647-11.490605l681.312735-393.352818c24.524693-14.188493 32.943299-45.554104 18.803975-70.121554l-17.102297-29.619039C953.453027 64.924593 859.390397 39.73291 785.76501 82.146605l-169.945519 98.120151L324.206096 41.218672a17.115123 17.115123 0 0 0-15.924376 0.619958l-133.295298 76.960335a17.095883 17.095883 0 0 0-8.525495 14.295382 17.112985 17.112985 0 0 0 7.674655 14.780659l232.176502 153.30071-112.569454 64.988727-137.752584-142.483508a17.112985 17.112985 0 0 0-20.88618-2.886012l-103.674121 59.858037a17.104434 17.104434 0 0 0-6.255165 23.363875z m19.832251-465.661327l101.536334-58.622397 262.263716 125.069094-140.332894 81.060609z m-75.365545 122.522989l137.73762 142.562606a17.119399 17.119399 0 0 0 20.851975 2.930906l503.574981-290.73904c57.269177-32.968952 130.419975-13.36972 163.532159 43.816083l17.102296 29.621178a17.095883 17.095883 0 0 1-6.255165 23.357461l-681.302046 393.352819A51.291925 51.291925 0 0 1 256.976969 607.131524a51.279098 51.279098 0 0 1-31.156109-23.943215l-162.471816-281.392635z m0 0" p-id="10956"></path><path d="M805.161152 149.937971l59.248769-34.196042 17.093745 29.61904-59.248768 34.196041z m0 0M745.895282 184.148977l29.629728-17.102296 17.093746 29.621177-29.621178 17.102296z m0 0M686.657203 218.347157l29.619039-17.093746 17.102297 29.61904-29.629729 17.102296z m0 0M627.440501 252.543198l29.61904-17.093745 17.102296 29.61904-29.627591 17.102296z m0 0M568.191733 286.747791l29.612626-17.093745 17.093745 29.629729-29.604075 17.083056z m0 0M508.942965 320.952384l29.612626-17.093745 17.102296 29.619039-29.612626 17.093746z m0 0M449.687783 355.156977l29.61904-17.093745 17.102296 29.619039-29.629729 17.102297z m0 0M390.456117 389.36157l29.627591-17.093745 17.093745 29.619039-29.61904 17.102297z m0 0M0 952.074154h1026.137787v34.204593H0z m0 0M906.421712 490.31215h-34.204593c-0.224468 198.256234-160.894129 358.923758-359.148225 359.148226H102.613779v34.204593h410.455115c217.143582-0.24157 393.117662-176.207098 393.352818-393.352819z m0 0" p-id="10957"></path><path d="M803.807933 490.31215h-34.204593c-0.158196 141.613428-114.923157 256.376251-256.534446 256.534447H34.204593v34.204593h478.864301c160.492225-0.181712 290.563741-130.244676 290.739039-290.73904z m0 0" p-id="10958"></path></svg>