<svg t="1650348054556" class="icon" viewBox="0 0 1024 1024" version="1.1" xmlns="http://www.w3.org/2000/svg" p-id="3092" width="200" height="200"><path d="M0 0h1024v1024H0z" fill="#FFFFFF" opacity=".01" p-id="3093"></path><path d="M840.112 589.52c-43.76 12.96-488.704 139.152-488.704 139.152s-123.2 40.416-214.336-68.544l101.152-41.2c17.584 5.84 33.952 5.344 55.68-1.488l115.008-27.92-172.512-250.4s-34.96-54.368 86.208-27.824c0 0 219.2 164.512 258.704 194.72 0 0 20.208 11.296 57.504 0l172.496-55.664s116.832-34.96 143.712 27.84c28.288 65.856-71.248 98.352-114.912 111.328zM117.664 640.032C72.592 590.704 64 561.68 64 561.68s9.296-60.32 86.208 0c22.432 17.632 46.272 29.712 61.44 39.616l-93.984 38.72z" fill="#848484" p-id="3094"></path></svg>
