<svg t="1637929771909" class="icon" viewBox="0 0 1024 1024" version="1.1" xmlns="http://www.w3.org/2000/svg" p-id="16958" width="200" height="200"><path d="M827.5 229.3l-298.6-97c-10.8-4.6-22.9-4.6-33.6 0l-298.7 97c-15.7 6.7-25.9 22.1-25.9 39.2v207.1c0 151.2 73.5 260 196.5 347.9l120 63.7c7.4 5.3 16.1 8 24.8 8s17.5-2.7 24.9-8l120-63.7C780 735.6 853.4 626.8 853.4 475.6V268.5c-0.1-17.1-10.2-32.5-25.9-39.2z m-40.2 242.8c0 133-64.6 225.7-172.9 303l-102.3 50.1-102.3-50.1c-108.3-77.3-172.9-170-172.9-303V279.7l275.2-86.9 275.2 86.9v192.4z" fill="#e6e6e6" p-id="16959"></path><path d="M619.7 453.4c-1.1-2.2-3.3-3.6-5.8-3.6h-75.5l74.5-114.9c1.2-1.9 1.3-4.4 0.2-6.3-1.1-2-3.3-3.2-5.6-3.2H505.6c-2.4 0-4.6 1.3-5.7 3.4l-95.6 186.7c-1 1.9-0.9 4.2 0.3 6 1.2 1.8 3.2 3 5.4 3h65.5L404.2 690c-1.2 2.8-0.1 6.1 2.6 7.7 2.7 1.6 6.1 1.1 8.2-1.3L618.8 460c1.6-1.8 1.9-4.4 0.9-6.6z" fill="#e6e6e6" p-id="16960"></path></svg>